{"asset":{"version":"2.0","generator":"THREE.GLTFExporter"},"scenes":[{"name":"AuxScene","nodes":[1]}],"scene":0,"nodes":[{"name":"bagFlat","extras":{"name":"bagFlat"},"mesh":0},{"children":[0]}],"bufferViews":[{"buffer":0,"byteOffset":0,"byteLength":2304,"target":34962,"byteStride":12},{"buffer":0,"byteOffset":2304,"byteLength":2304,"target":34962,"byteStride":12},{"buffer":0,"byteOffset":4608,"byteLength":1536,"target":34962,"byteStride":8},{"buffer":0,"byteOffset":6144,"byteLength":1368,"target":34963}],"buffers":[{"byteLength":7512,"uri":"data:application/octet-stream;base64,"}],"accessors":[{"bufferView":0,"componentType":5126,"count":192,"max":[0.32499998807907104,0.190522700548172,0.23366568982601166],"min":[-0.32499998807907104,0,-0.23375000059604645],"type":"VEC3"},{"bufferView":1,"componentType":5126,"count":192,"max":[1,1,0.8827195763587952],"min":[-1,-1,-0.8827195763587952],"type":"VEC3"},{"bufferView":2,"componentType":5126,"count":192,"max":[12.795275688171387,8.575325012207031],"min":[-12.795275688171387,-9.885892868041992],"type":"VEC2"},{"bufferView":3,"componentType":5125,"count":342,"max":[191],"min":[0],"type":"SCALAR"}],"materials":[{"pbrMetallicRoughness":{"baseColorFactor":[0.06666666666666667,0.0196078431372549,0.6235294117647059,1],"metallicFactor":0,"roughnessFactor":0.5},"alphaMode":"BLEND","name":"brownLight"}],"meshes":[{"primitives":[{"mode":4,"attributes":{"POSITION":0,"NORMAL":1,"TEXCOORD_0":2},"indices":3,"material":0}]}]}